<svg xmlns="http://www.w3.org/2000/svg" viewBox="0 0 34 34" width="34" height="34">
  <g>
    <title>LinkedIn</title>
    <rect width="34" height="34" fill="#0077B5" rx="4" />
    <path fill="#FFFFFF" d="M10.872,27.008H7.264V13.309h3.608V27.008z M9.067,11.633c-1.156,0-2.088-0.936-2.088-2.09 
    c0-1.155,0.932-2.088,2.088-2.088c1.156,0,2.091,0.933,2.091,2.088C11.158,10.697,10.223,11.633,9.067,11.633z M27.008,27.008
    h-3.606v-6.707c0-1.599-0.031-3.66-2.228-3.66c-2.228,0-2.569,1.741-2.569,3.541v6.826h-3.605V13.309h3.462v1.869h0.049
    c0.482-0.915,1.662-1.881,3.421-1.881c3.656,0,4.333,2.409,4.333,5.541v8.17H27.008z"/>
  </g>
</svg>
